<svg width="327" height="144" viewBox="0 0 327 144" fill="none" xmlns="http://www.w3.org/2000/svg">
<g opacity="0.8" filter="url(#filter0_f_6_16468)">
<path d="M230.244 153.446C226.408 156.722 222.26 159.81 217.794 162.706C197.262 176.026 173.966 182.681 147.899 182.681C123.921 182.681 102.12 177.068 82.5006 165.844C62.8683 154.626 47.5062 139.29 36.43 119.829C34.7422 116.871 33.1818 113.863 31.7541 110.8L2.22363 92.5371L26.818 98.5659L127.466 125.723C129.315 126.318 131.203 126.827 133.122 127.248L133.154 127.253L230.244 153.449V153.446Z" fill="white"/>
<path d="M89.6894 17.2475C83.8458 28.4661 80.9226 41.116 80.9226 55.1816C80.9226 69.2471 83.8458 81.8919 89.6894 93.1157C95.5331 104.34 103.548 113.091 113.738 119.379C118.091 122.065 122.673 124.174 127.466 125.717L26.8186 98.5601C22.1375 84.905 19.7969 70.2887 19.7969 54.727C19.7969 30.7883 25.3363 9.164 36.4306 -10.1459C43.8763 -23.1205 53.2257 -34.2379 64.4761 -43.4902L165.012 -16.3644C159.592 -17.754 153.887 -18.4476 147.9 -18.4476C135.315 -18.4476 123.922 -15.302 113.738 -9.01601C103.548 -2.73521 95.5331 6.02361 89.6894 17.2475ZM208.126 87.5051C203.333 100.378 195.609 110.483 184.98 117.805C174.338 125.14 161.975 128.806 147.9 128.806C142.79 128.806 137.872 128.283 133.154 127.25L230.244 153.446C232.169 151.801 234.013 150.116 235.784 148.367L244.657 114.779L247.167 105.285L208.131 87.5051H208.126ZM166.651 -15.9228C173.095 -14.0942 179.131 -11.2655 184.756 -7.44452C195.541 -0.109131 203.333 9.83936 208.126 22.4087L246.472 5.6158L166.651 -15.9228Z" fill="url(#paint0_linear_6_16468)"/>
<path d="M4.31043 15.1147L5.11923 18.4006C5.14784 18.5227 5.24406 18.6162 5.3663 18.6474L8.65612 19.4552L5.3663 20.263C5.24406 20.2916 5.15044 20.3877 5.11923 20.5098L4.31043 23.7956L3.50163 20.5098C3.47302 20.3877 3.3768 20.2942 3.25456 20.263L-0.0351562 19.4552L3.25456 18.6474C3.3768 18.6188 3.47042 18.5227 3.50163 18.4006L4.31043 15.1147Z" fill="white"/>
<path d="M28.707 65.2653L29.5158 68.5511C29.5444 68.6732 29.6407 68.7667 29.7629 68.7979L33.0527 69.6057L29.7629 70.4135C29.6407 70.4421 29.547 70.5382 29.5158 70.6603L28.707 73.9462L27.8982 70.6603C27.8696 70.5382 27.7734 70.4447 27.6512 70.4135L24.3613 69.6057L27.6512 68.7979C27.7734 68.7693 27.867 68.6732 27.8982 68.5511L28.707 65.2653Z" fill="white"/>
<path d="M45.5726 38.8315L46.0148 40.6264C46.0304 40.694 46.0824 40.7459 46.15 40.7615L47.947 41.2031L46.15 41.6446C46.0824 41.6602 46.0304 41.7122 46.0148 41.7797L45.5726 43.5746L45.1305 41.7797C45.1149 41.7122 45.0629 41.6602 44.9953 41.6446L43.1982 41.2031L44.9953 40.7615C45.0629 40.7459 45.1149 40.694 45.1305 40.6264L45.5726 38.8315Z" fill="white"/>
<path d="M36.8828 7.16846L37.6916 10.4543C37.7202 10.5764 37.8164 10.6699 37.9387 10.7011L41.2285 11.5089L37.9387 12.3167C37.8164 12.3453 37.7228 12.4414 37.6916 12.5635L36.8828 15.8494L36.074 12.5635C36.0454 12.4414 35.9492 12.3479 35.8269 12.3167L32.5371 11.5089L35.8269 10.7011C35.9492 10.6725 36.0428 10.5764 36.074 10.4543L36.8828 7.16846Z" fill="white"/>
<path d="M292.121 88.1427H292.116L283.24 85.8128C281.838 80.9138 277.521 77.2773 272.283 76.8046L272.296 76.7578L287.695 18.4773C287.843 17.9189 287.932 17.3604 287.963 16.8019C288.2 12.8511 285.622 9.14185 281.643 8.09505C280.918 7.90284 280.189 7.80933 279.469 7.80933C276.283 7.80933 273.329 9.61461 271.883 12.4667C271.623 12.994 271.404 13.5524 271.248 14.1421L247.164 105.286L244.654 114.78L235.78 148.369L234.16 154.501L234.111 154.689C232.912 159.229 235.627 163.873 240.165 165.071C244.704 166.268 249.361 163.564 250.56 159.024L250.586 158.938L256.602 136.166L265.959 100.743V100.735C267.542 101.452 269.295 101.86 271.147 101.86C274.276 101.86 277.139 100.72 279.336 98.8263H279.342L292.119 102.182H292.121L351 117.638V103.608L292.121 88.1479V88.1427Z" fill="white"/>
<path d="M259.371 -0.0366211L246.474 5.61298L166.652 -15.9256C166.15 -16.0737 165.641 -16.2114 165.126 -16.3412L165.014 -16.3672L64.4778 -43.4931L30.9736 -51.6285L74.1705 -50.6986C76.7841 -52.4597 79.4862 -54.1273 82.2741 -55.7092C101.75 -66.7772 123.624 -72.3203 147.902 -72.3203C173.968 -72.3203 197.189 -65.6525 217.565 -52.3402C237.944 -39.0202 251.876 -21.5856 259.371 -0.0366211Z" fill="white"/>
</g>
<defs>
<filter id="filter0_f_6_16468" x="-84" y="-132.32" width="495" height="375.002" filterUnits="userSpaceOnUse" color-interpolation-filters="sRGB">
<feFlood flood-opacity="0" result="BackgroundImageFix"/>
<feBlend mode="normal" in="SourceGraphic" in2="BackgroundImageFix" result="shape"/>
<feGaussianBlur stdDeviation="30" result="effect1_foregroundBlur_6_16468"/>
</filter>
<linearGradient id="paint0_linear_6_16468" x1="270.193" y1="87.4116" x2="29.6549" y2="23.7458" gradientUnits="userSpaceOnUse">
<stop offset="0.31" stop-color="#8F6FDC"/>
<stop offset="0.5" stop-color="#C8649A"/>
<stop offset="0.65" stop-color="#EF5C6E"/>
<stop offset="0.73" stop-color="#FF5A5E"/>
<stop offset="0.79" stop-color="#FA8257"/>
<stop offset="0.86" stop-color="#F5A851"/>
<stop offset="0.91" stop-color="#F3C04E"/>
<stop offset="0.95" stop-color="#F2C94D"/>
</linearGradient>
</defs>
</svg>
