<svg width="375" height="664" viewBox="0 0 375 664" fill="none" xmlns="http://www.w3.org/2000/svg">
<g opacity="0.4" filter="url(#filter0_f_6_49350)">
<path d="M287.361 459.647C281.607 464.561 275.385 469.193 268.687 473.538C237.889 493.518 202.944 503.5 163.845 503.5C127.878 503.5 95.176 495.08 65.7471 478.244C36.2987 461.416 13.2557 438.413 -3.35854 409.222C-5.89027 404.784 -8.23085 400.272 -10.3725 395.679L-54.668 368.284L-17.7765 377.327L133.195 418.063C135.968 418.955 138.801 419.719 141.679 420.35L141.726 420.357L287.361 459.651V459.647Z" fill="white"/>
<path d="M76.5338 255.351C67.7683 272.179 63.3837 291.154 63.3837 312.252C63.3837 333.351 67.7683 352.318 76.5338 369.153C85.2993 385.989 97.3221 399.116 112.606 408.549C119.136 412.577 126.01 415.741 133.199 418.055L-17.7721 377.32C-24.7938 356.837 -28.3047 334.913 -28.3047 311.571C-28.3047 275.663 -19.9956 243.226 -3.3541 214.261C7.81437 194.8 21.8383 178.124 38.7139 164.245L189.518 204.934C181.388 202.849 172.829 201.809 163.849 201.809C144.972 201.809 127.882 206.527 112.606 215.956C97.3221 225.377 85.2993 238.516 76.5338 255.351ZM254.188 360.738C246.998 380.047 235.412 395.204 219.469 406.187C203.506 417.19 184.961 422.688 163.849 422.688C156.184 422.688 148.807 421.905 141.731 420.354L287.366 459.648C290.252 457.182 293.018 454.653 295.675 452.031L308.985 401.648L312.749 387.407L254.196 360.738H254.188ZM191.975 205.596C201.642 208.339 210.696 212.582 219.134 218.314C235.311 229.317 246.998 244.239 254.188 263.093L311.708 237.904L191.975 205.596Z" fill="url(#paint0_linear_6_49350)"/>
<path d="M51.9365 189.497L53.1497 194.426C53.1926 194.609 53.3369 194.749 53.5203 194.796L58.455 196.007L53.5203 197.219C53.3369 197.262 53.1965 197.406 53.1497 197.589L51.9365 202.518L50.7233 197.589C50.6804 197.406 50.536 197.266 50.3527 197.219L45.418 196.007L50.3527 194.796C50.536 194.753 50.6765 194.609 50.7233 194.426L51.9365 189.497Z" fill="white"/>
<path d="M10.3585 287.726L11.0216 290.418C11.045 290.519 11.1231 290.597 11.2245 290.621L13.92 291.283L11.2245 291.945C11.1231 291.969 11.045 292.047 11.0216 292.148L10.3585 294.84L9.6953 292.148C9.6719 292.047 9.59387 291.969 9.49245 291.945L6.79688 291.283L9.49245 290.621C9.59387 290.597 9.6719 290.519 9.6953 290.418L10.3585 287.726Z" fill="white"/>
<path d="M-2.67679 240.233L-1.46359 245.162C-1.42068 245.345 -1.27635 245.485 -1.093 245.532L3.84172 246.744L-1.093 247.956C-1.27635 247.998 -1.41678 248.143 -1.46359 248.326L-2.67679 253.254L-3.88999 248.326C-3.9329 248.143 -4.07724 248.002 -4.26058 247.956L-9.19531 246.744L-4.26058 245.532C-4.07724 245.489 -3.93681 245.345 -3.88999 245.162L-2.67679 240.233Z" fill="white"/>
<path d="M380.183 361.696H380.175L366.861 358.201C364.759 350.853 358.283 345.398 350.427 344.689L350.446 344.619L373.544 257.198C373.766 256.361 373.899 255.523 373.946 254.685C374.3 248.759 370.435 243.195 364.466 241.625C363.378 241.337 362.285 241.196 361.205 241.196C356.426 241.196 351.995 243.904 349.826 248.182C349.436 248.973 349.108 249.811 348.874 250.695L312.747 387.411L308.983 401.652L295.672 452.035L293.241 461.234L293.167 461.514C291.369 468.325 295.442 475.292 302.25 477.088C309.057 478.884 316.043 474.828 317.842 468.017L317.881 467.889L326.904 433.73L340.939 380.597V380.585C343.315 381.66 345.944 382.272 348.722 382.272C353.415 382.272 357.71 380.562 361.006 377.721H361.014L380.179 382.755H380.183L468.501 405.938V384.894L380.183 361.704V361.696Z" fill="white"/>
<path d="M331.052 229.425L311.707 237.9L191.974 205.592C191.222 205.37 190.457 205.163 189.685 204.968L189.517 204.929L38.7132 164.241L-11.543 152.038L53.2521 153.432C57.1726 150.791 61.2257 148.289 65.4075 145.917C94.6219 129.315 127.433 121 163.848 121C202.948 121 237.78 131.002 268.344 150.97C298.912 170.95 319.81 197.102 331.052 229.425Z" fill="white"/>
</g>
<defs>
<filter id="filter0_f_6_49350" x="-254" y="-39" width="882.5" height="702.5" filterUnits="userSpaceOnUse" color-interpolation-filters="sRGB">
<feFlood flood-opacity="0" result="BackgroundImageFix"/>
<feBlend mode="normal" in="SourceGraphic" in2="BackgroundImageFix" result="shape"/>
<feGaussianBlur stdDeviation="80" result="effect1_foregroundBlur_6_49350"/>
</filter>
<linearGradient id="paint0_linear_6_49350" x1="347.288" y1="360.597" x2="-13.5177" y2="265.099" gradientUnits="userSpaceOnUse">
<stop offset="0.31" stop-color="#8F6FDC"/>
<stop offset="0.5" stop-color="#C8649A"/>
<stop offset="0.65" stop-color="#EF5C6E"/>
<stop offset="0.73" stop-color="#FF5A5E"/>
<stop offset="0.79" stop-color="#FA8257"/>
<stop offset="0.86" stop-color="#F5A851"/>
<stop offset="0.91" stop-color="#F3C04E"/>
<stop offset="0.95" stop-color="#F2C94D"/>
</linearGradient>
</defs>
</svg>
