<svg width="24" height="24" viewBox="0 0 24 24" fill="none" xmlns="http://www.w3.org/2000/svg">
<path d="M17 6C19.3456 6 20.0184 6 20.8263 6.61994C21.0343 6.77954 21.2205 6.96572 21.3801 7.17372C22 7.98164 22 9.15442 22 11.5V16C22 18.8284 22 20.2426 21.1213 21.1213C20.2426 22 18.8284 22 16 22H8C5.17157 22 3.75736 22 2.87868 21.1213C2 20.2426 2 18.8284 2 16V11.5C2 9.15442 2 7.98164 2.61994 7.17372C2.77954 6.96572 2.96572 6.77954 3.17372 6.61994C3.98164 6 4.65442 6 7 6" stroke="white" stroke-width="1.84729" stroke-linecap="round"/>
<path d="M16.999 7L16.1132 4.78543C15.731 3.82996 15.3984 2.7461 14.4157 2.25955C13.8914 2 13.2606 2 11.999 2C10.7374 2 10.1066 2 9.58238 2.25955C8.59963 2.7461 8.26704 3.82996 7.88485 4.78543L6.99902 7" stroke="white" stroke-width="1.84729" stroke-linecap="round" stroke-linejoin="round"/>
<path d="M15.5 13.9998C15.5 15.9328 13.933 17.4998 12 17.4998C10.067 17.4998 8.5 15.9328 8.5 13.9998C8.5 12.0668 10.067 10.4998 12 10.4998C13.933 10.4998 15.5 12.0668 15.5 13.9998Z" stroke="white" stroke-width="1.84729"/>
<path d="M11.9998 6H12.0088" stroke="white" stroke-width="2.46305" stroke-linecap="round" stroke-linejoin="round"/>
</svg>
