<svg width="20" height="20" viewBox="0 0 20 20" fill="none" xmlns="http://www.w3.org/2000/svg">
<path d="M2.875 6.8335L12.375 6.8335M12.375 6.8335C12.375 8.14517 13.4383 9.2085 14.75 9.2085C16.0617 9.2085 17.125 8.14517 17.125 6.8335C17.125 5.52182 16.0617 4.4585 14.75 4.4585C13.4383 4.4585 12.375 5.52182 12.375 6.8335ZM7.625 13.1668L17.125 13.1668M7.625 13.1668C7.625 14.4785 6.56168 15.5418 5.25 15.5418C3.93832 15.5418 2.875 14.4785 2.875 13.1668C2.875 11.8552 3.93832 10.7918 5.25 10.7918C6.56168 10.7918 7.625 11.8552 7.625 13.1668Z" stroke="white" stroke-width="1.25" stroke-linecap="round" stroke-linejoin="round"/>
</svg>
