<svg width="14" height="14" viewBox="0 0 14 14" fill="none" xmlns="http://www.w3.org/2000/svg">
<g clip-path="url(#clip0_103_16098)">
<path opacity="0.4" d="M6.99821 0.729187C7.61029 0.729187 8.09242 1.1915 8.40022 1.8153L9.42807 3.88803C9.45924 3.95218 9.53312 4.04251 9.64419 4.12514C9.75515 4.20769 9.86381 4.25323 9.93529 4.26524L11.7959 4.57693C12.468 4.68987 13.0313 5.01931 13.2142 5.59296C13.3969 6.16614 13.1292 6.76179 12.6459 7.24598L12.6454 7.24645L11.2 8.70385C11.1427 8.76161 11.0785 8.87043 11.0383 9.01219C10.9983 9.153 10.9947 9.28125 11.0129 9.36412L11.0131 9.36527L11.4267 11.1682C11.5982 11.9185 11.5413 12.6626 11.0121 13.0516C10.4811 13.442 9.75538 13.2689 9.09612 12.8763L7.35198 11.8353C7.27874 11.7915 7.15295 11.7561 7.00113 11.7561C6.85042 11.7561 6.72199 11.791 6.64398 11.8364L6.64287 11.8371L4.90217 12.8761C4.24368 13.2701 3.51889 13.44 2.9878 13.0493C2.45894 12.6602 2.39924 11.9175 2.5713 11.1678L2.98476 9.36527L2.98502 9.36412C3.00314 9.28125 2.9996 9.153 2.95962 9.01219C2.91937 8.87043 2.8552 8.76161 2.79791 8.70385L1.3514 7.24539C0.871199 6.76122 0.604359 6.16609 0.785624 5.59375C0.967418 5.01975 1.52965 4.6899 2.20218 4.57689L4.06126 4.26547L4.06185 4.26536C4.13 4.25354 4.23707 4.20851 4.34777 4.12575C4.45868 4.04284 4.53275 3.95231 4.56397 3.88803L4.56555 3.88483L5.5921 1.81475L5.59251 1.81394C5.90322 1.19065 6.38684 0.729187 6.99821 0.729187Z" fill="#EEB711"/>
<path d="M5.59251 1.81394C5.90322 1.19065 6.38684 0.729187 6.99821 0.729187V11.7561C6.84876 11.7565 6.72148 11.7913 6.64398 11.8364L6.64288 11.8371L4.90217 12.8761C4.24368 13.2701 3.51889 13.44 2.9878 13.0493C2.45894 12.6602 2.39924 11.9175 2.5713 11.1678L2.98476 9.36527L2.98502 9.36412C3.00314 9.28125 2.9996 9.153 2.95962 9.01219C2.91937 8.87043 2.8552 8.76161 2.79791 8.70385L1.3514 7.24539C0.871199 6.76122 0.604359 6.16609 0.785624 5.59375C0.967418 5.01975 1.52965 4.6899 2.20218 4.57689L4.06126 4.26547L4.06185 4.26536C4.13 4.25354 4.23707 4.20851 4.34777 4.12575C4.45868 4.04284 4.53275 3.95231 4.56398 3.88803L4.56555 3.88483L5.5921 1.81475L5.59251 1.81394Z" fill="#EEB711"/>
</g>
<defs>
<clipPath id="clip0_103_16098">
<rect width="14" height="14" fill="white"/>
</clipPath>
</defs>
</svg>
