<svg width="16" height="16" viewBox="0 0 16 16" fill="none" xmlns="http://www.w3.org/2000/svg">
<g clip-path="url(#clip0_6_57702)">
<path d="M7.9974 0.833252C8.69691 0.833252 9.24792 1.36161 9.59969 2.07453L10.7744 4.44336C10.81 4.51667 10.8944 4.61991 11.0214 4.71434C11.1482 4.80868 11.2724 4.86073 11.3541 4.87446L13.4805 5.23067C14.2486 5.35974 14.8924 5.73625 15.1014 6.39185C15.3102 7.04691 15.0042 7.72766 14.4519 8.28101L14.4514 8.28155L12.7994 9.94716C12.7339 10.0132 12.6606 10.1375 12.6146 10.2995C12.5689 10.4605 12.5649 10.607 12.5856 10.7018L12.5859 10.7031L13.0585 12.7635C13.2545 13.6211 13.1896 14.4715 12.5847 14.916C11.9778 15.3621 11.1485 15.1644 10.395 14.7157L8.4017 13.5259C8.318 13.4759 8.17424 13.4354 8.00073 13.4354C7.82849 13.4354 7.68171 13.4754 7.59256 13.5272L7.5913 13.528L5.60192 14.7154C4.84937 15.1657 4.02103 15.3599 3.41407 14.9134C2.80966 14.4687 2.74143 13.6199 2.93807 12.7631L3.4106 10.7031L3.41089 10.7018C3.43161 10.607 3.42755 10.4605 3.38187 10.2995C3.33587 10.1375 3.26252 10.0132 3.19705 9.94716L1.5439 8.28034C0.995098 7.72701 0.690138 7.04685 0.897298 6.39276C1.10506 5.73675 1.74762 5.35979 2.51622 5.23063L4.64088 4.87471L4.64156 4.8746C4.71945 4.86108 4.8418 4.80962 4.96832 4.71504C5.09507 4.62028 5.17973 4.51682 5.21541 4.44336L5.21721 4.4397L6.39041 2.0739L6.39088 2.07297C6.74597 1.36064 7.29869 0.833252 7.9974 0.833252Z" fill="#EEB711"/>
</g>
<defs>
<clipPath id="clip0_6_57702">
<rect width="16" height="16" fill="white"/>
</clipPath>
</defs>
</svg>
